<?xml version="1.0" standalone="no"?>
<!DOCTYPE svg PUBLIC "-//W3C//DTD SVG 20010904//EN"
 "http://www.w3.org/TR/2001/REC-SVG-20010904/DTD/svg10.dtd">
<svg version="1.0" xmlns="http://www.w3.org/2000/svg"
 width="980.000000pt" height="864.000000pt" viewBox="0 0 980.000000 864.000000"
 preserveAspectRatio="xMidYMid meet">

<g transform="translate(0.000000,864.000000) scale(0.100000,-0.100000)"
fill="#000000" stroke="none">
<path d="M4230 7490 l0 -1140 -1100 0 -1100 0 0 -365 0 -365 -240 0 -240 0 -2
-2622 -3 -2623 -772 -3 -773 -2 0 -185 0 -185 4900 0 4900 0 0 185 0 185 -770
0 -770 0 0 3765 0 3765 -765 0 -765 0 0 365 0 365 -1250 0 -1250 0 0 -1140z
m2130 595 l0 -185 -880 0 -880 0 0 185 0 185 880 0 880 0 0 -185z m1525 -4130
l0 -3580 -442 -3 -443 -2 0 730 0 730 -810 0 -810 0 0 -730 0 -730 -392 2
-393 3 -3 3570 c-1 1964 0 3576 3 3583 3 10 338 12 1647 10 l1643 -3 0 -3580z
m-3725 1845 l0 -180 -885 0 -885 0 0 180 0 180 885 0 885 0 0 -180z m68 -2987
l-3 -2438 -1155 0 -1155 0 -3 2438 -2 2437 1160 0 1160 0 -2 -2437z m2402
-1893 l0 -550 -440 0 -440 0 0 550 0 550 440 0 440 0 0 -550z"/>
<path d="M4990 6355 l0 -185 1250 0 1250 0 0 185 0 185 -1250 0 -1250 0 0
-185z"/>
<path d="M4990 5145 l0 -185 1250 0 1250 0 0 185 0 185 -1250 0 -1250 0 0
-185z"/>
<path d="M4990 3935 l0 -185 1250 0 1250 0 0 185 0 185 -1250 0 -1250 0 0
-185z"/>
<path d="M2290 4355 l0 -185 780 0 780 0 0 185 0 185 -780 0 -780 0 0 -185z"/>
<path d="M2290 3345 l0 -185 780 0 780 0 0 185 0 185 -780 0 -780 0 0 -185z"/>
<path d="M2290 2305 l0 -185 780 0 780 0 0 185 0 185 -780 0 -780 0 0 -185z"/>
<path d="M2290 1265 l0 -185 780 0 780 0 0 185 0 185 -780 0 -780 0 0 -185z"/>
</g>
</svg>
