<?xml version="1.0" standalone="no"?>
<!DOCTYPE svg PUBLIC "-//W3C//DTD SVG 20010904//EN"
 "http://www.w3.org/TR/2001/REC-SVG-20010904/DTD/svg10.dtd">
<svg version="1.0" xmlns="http://www.w3.org/2000/svg"
 width="918.000000pt" height="980.000000pt" viewBox="0 0 918.000000 980.000000"
 preserveAspectRatio="xMidYMid meet">

<g transform="translate(0.000000,980.000000) scale(0.100000,-0.100000)"
fill="#000000" stroke="none">
<path d="M4347 9790 c-1166 -113 -2128 -925 -2422 -2044 -100 -380 -118 -765
-55 -1152 98 -603 418 -1188 870 -1592 160 -144 471 -362 550 -387 11 -4 20
-10 20 -14 0 -4 -55 -24 -122 -45 -664 -204 -1302 -583 -1807 -1071 -380 -367
-653 -739 -892 -1210 -279 -553 -435 -1125 -478 -1755 -12 -178 -7 -250 22
-313 84 -183 284 -256 463 -167 119 58 182 161 195 319 40 458 84 691 190
1019 150 457 368 860 676 1248 112 140 446 475 588 588 347 276 777 504 1220
645 713 228 1493 251 2208 66 1220 -315 2210 -1200 2661 -2378 133 -347 216
-724 246 -1117 13 -168 15 -180 46 -240 31 -62 97 -124 169 -157 79 -37 194
-39 267 -6 86 40 173 137 199 225 15 49 12 263 -6 433 -85 830 -388 1601 -888
2257 -469 619 -1156 1149 -1890 1462 -122 52 -390 149 -461 167 -25 6 -48 15
-51 19 -2 4 19 20 48 35 623 337 1123 957 1322 1641 124 426 144 902 55 1334
-113 546 -378 1023 -791 1425 -415 404 -931 658 -1511 746 -151 23 -498 33
-641 19z m482 -696 c929 -108 1664 -823 1807 -1759 23 -149 22 -441 -1 -590
-91 -589 -410 -1092 -906 -1426 -477 -321 -1089 -423 -1658 -278 -579 148
-1071 552 -1337 1094 -268 549 -283 1167 -41 1728 204 474 599 870 1072 1073
346 149 696 201 1064 158z"/>
</g>
</svg>
